<svg width="102" height="102" viewBox="0 0 102 102" fill="none" xmlns="http://www.w3.org/2000/svg">
<rect width="102" height="102" rx="24" fill="#6EA8FE"/>
<g clip-path="url(#clip0_636_424)">
<path d="M51 27C53.2031 27 55.3281 27.2812 57.375 27.8438C59.4219 28.4062 61.3281 29.2188 63.0938 30.2812C64.8594 31.3437 66.4766 32.5938 67.9453 34.0312C69.4141 35.4687 70.6719 37.0859 71.7188 38.8828C72.7656 40.6797 73.5703 42.5938 74.1328 44.625C74.6953 46.6562 74.9844 48.7813 75 51C75 53.2031 74.7188 55.3281 74.1562 57.375C73.5938 59.4219 72.7812 61.3281 71.7188 63.0938C70.6563 64.8594 69.4062 66.4766 67.9688 67.9453C66.5313 69.4141 64.9141 70.6719 63.1172 71.7188C61.3203 72.7656 59.4062 73.5703 57.375 74.1328C55.3438 74.6953 53.2187 74.9844 51 75C48.7969 75 46.6719 74.7188 44.625 74.1562C42.5781 73.5938 40.6719 72.7812 38.9062 71.7188C37.1406 70.6563 35.5234 69.4062 34.0547 67.9688C32.5859 66.5313 31.3281 64.9141 30.2812 63.1172C29.2344 61.3203 28.4297 59.4062 27.8672 57.375C27.3047 55.3438 27.0156 53.2187 27 51C27 48.7969 27.2812 46.6719 27.8438 44.625C28.4062 42.5781 29.2188 40.6719 30.2812 38.9062C31.3437 37.1406 32.5938 35.5234 34.0312 34.0547C35.4687 32.5859 37.0859 31.3281 38.8828 30.2812C40.6797 29.2344 42.5938 28.4297 44.625 27.8672C46.6562 27.3047 48.7813 27.0156 51 27ZM54 63V57H48V63H54ZM54 54V39H48V54H54Z" fill="white"/>
</g>
<defs>
<clipPath id="clip0_636_424">
<rect width="48" height="48" fill="white" transform="translate(27 27)"/>
</clipPath>
</defs>
</svg>
