<svg width="102" height="102" viewBox="0 0 102 102" fill="none" xmlns="http://www.w3.org/2000/svg">
<rect width="102" height="102" rx="24" fill="#6EA8FE"/>
<path d="M52.1879 73.5159L52.1639 73.5199L52.0219 73.5899L51.9819 73.5979L51.9539 73.5899L51.8119 73.5179C51.7905 73.5125 51.7745 73.5165 51.7639 73.5299L51.7559 73.5499L51.7219 74.4059L51.7319 74.4459L51.7519 74.4719L51.9599 74.6199L51.9899 74.6279L52.0139 74.6199L52.2219 74.4719L52.2459 74.4399L52.2539 74.4059L52.2199 73.5519C52.2145 73.5305 52.2039 73.5185 52.1879 73.5159ZM52.7159 73.2899L52.6879 73.2939L52.3199 73.4799L52.2999 73.4999L52.2939 73.5219L52.3299 74.3819L52.3399 74.4059L52.3559 74.4219L52.7579 74.6059C52.7832 74.6125 52.8025 74.6072 52.8159 74.5899L52.8239 74.5619L52.7559 73.3339C52.7492 73.3085 52.7359 73.2939 52.7159 73.2899ZM51.2859 73.2939C51.277 73.2885 51.2665 73.2868 51.2564 73.289C51.2464 73.2913 51.2376 73.2973 51.2319 73.3059L51.2199 73.3339L51.1519 74.5619C51.1532 74.5859 51.1645 74.6019 51.1859 74.6099L51.2159 74.6059L51.6179 74.4199L51.6379 74.4039L51.6439 74.3819L51.6799 73.5219L51.6739 73.4979L51.6539 73.4779L51.2859 73.2939Z" fill="white"/>
<path d="M50.9999 31C47.2868 31 43.7259 32.475 41.1004 35.1005C38.4749 37.726 36.9999 41.287 36.9999 45V52.056C37.0002 52.3663 36.9283 52.6723 36.7899 52.95L33.3559 59.816C33.1881 60.1514 33.1089 60.5242 33.1258 60.8989C33.1426 61.2735 33.255 61.6377 33.4522 61.9567C33.6493 62.2757 33.9248 62.539 34.2524 62.7216C34.58 62.9042 34.9488 63.0001 35.3239 63H66.6759C67.0509 63.0001 67.4197 62.9042 67.7473 62.7216C68.0749 62.539 68.3504 62.2757 68.5476 61.9567C68.7448 61.6377 68.8571 61.2735 68.874 60.8989C68.8908 60.5242 68.8116 60.1514 68.6439 59.816L65.2119 52.95C65.0728 52.6725 65.0002 52.3664 64.9999 52.056V45C64.9999 41.287 63.5249 37.726 60.8994 35.1005C58.2738 32.475 54.7129 31 50.9999 31ZM50.9999 69C49.7586 69.0007 48.5476 68.6163 47.5339 67.8999C46.5202 67.1835 45.7536 66.1703 45.3399 65H56.6599C56.2461 66.1703 55.4795 67.1835 54.4658 67.8999C53.4521 68.6163 52.2412 69.0007 50.9999 69Z" fill="white"/>
</svg>
