<svg width="102" height="102" viewBox="0 0 102 102" fill="none" xmlns="http://www.w3.org/2000/svg">
<rect width="102" height="102" rx="24" fill="#6EA8FE"/>
<path d="M52.1879 73.5159L52.1639 73.5199L52.0219 73.5899L51.9819 73.5979L51.9539 73.5899L51.8119 73.5179C51.7905 73.5125 51.7745 73.5165 51.7639 73.5299L51.7559 73.5499L51.7219 74.4059L51.7319 74.4459L51.7519 74.4719L51.9599 74.6199L51.9899 74.6279L52.0139 74.6199L52.2219 74.4719L52.2459 74.4399L52.2539 74.4059L52.2199 73.5519C52.2145 73.5305 52.2039 73.5185 52.1879 73.5159ZM52.7159 73.2899L52.6879 73.2939L52.3199 73.4799L52.2999 73.4999L52.2939 73.5219L52.3299 74.3819L52.3399 74.4059L52.3559 74.4219L52.7579 74.6059C52.7832 74.6125 52.8025 74.6072 52.8159 74.5899L52.8239 74.5619L52.7559 73.3339C52.7492 73.3085 52.7359 73.2939 52.7159 73.2899ZM51.2859 73.2939C51.277 73.2885 51.2665 73.2868 51.2564 73.289C51.2464 73.2913 51.2376 73.2973 51.2319 73.3059L51.2199 73.3339L51.1519 74.5619C51.1532 74.5859 51.1645 74.6019 51.1859 74.6099L51.2159 74.6059L51.6179 74.4199L51.6379 74.4039L51.6439 74.3819L51.6799 73.5219L51.6739 73.4979L51.6539 73.4779L51.2859 73.2939Z" fill="white"/>
<g clip-path="url(#clip0_636_396)">
<path d="M42.5888 31.5557C44.9396 28.2375 47.5094 26 50.9998 26C54.4903 26 57.0601 28.24 59.4108 31.5557C61.7444 34.8492 64.2182 39.7231 67.3861 45.9606L68.3461 47.8535C70.9677 53.0178 73.0329 57.0843 74.1159 60.3483C75.2187 63.6665 75.4698 66.6302 73.8181 69.2665C72.1689 71.8905 69.3849 72.9858 65.892 73.4978C62.4508 74 57.8379 74 51.9697 74H50.03C44.1618 74 39.5489 74 36.1077 73.4978C32.6148 72.9858 29.8308 71.8905 28.1816 69.264C26.5299 66.6302 26.781 63.6665 27.8862 60.3483C28.9693 57.0868 31.032 53.0178 33.656 47.8535L34.616 45.9631C37.7815 39.7231 40.2504 34.8492 42.5888 31.5557ZM52.846 41.3846C52.846 40.895 52.6515 40.4254 52.3053 40.0792C51.959 39.733 51.4895 39.5385 50.9998 39.5385C50.5102 39.5385 50.0406 39.733 49.6944 40.0792C49.3482 40.4254 49.1537 40.895 49.1537 41.3846V54.9231C49.1537 55.4127 49.3482 55.8823 49.6944 56.2285C50.0406 56.5747 50.5102 56.7692 50.9998 56.7692C51.4895 56.7692 51.959 56.5747 52.3053 56.2285C52.6515 55.8823 52.846 55.4127 52.846 54.9231V41.3846ZM52.846 61.6849C52.846 61.1953 52.6515 60.7257 52.3053 60.3795C51.959 60.0333 51.4895 59.8388 50.9998 59.8388C50.5102 59.8388 50.0406 60.0333 49.6944 60.3795C49.3482 60.7257 49.1537 61.1953 49.1537 61.6849V62.9157C49.1537 63.4053 49.3482 63.8749 49.6944 64.2211C50.0406 64.5673 50.5102 64.7618 50.9998 64.7618C51.4895 64.7618 51.959 64.5673 52.3053 64.2211C52.6515 63.8749 52.846 63.4053 52.846 62.9157V61.6849Z" fill="white"/>
</g>
<defs>
<clipPath id="clip0_636_396">
<rect width="48" height="48" fill="white" transform="translate(27 26)"/>
</clipPath>
</defs>
</svg>
