<svg width="102" height="102" viewBox="0 0 102 102" fill="none" xmlns="http://www.w3.org/2000/svg">
<rect width="102" height="102" rx="24" fill="#6EA8FE"/>
<g clip-path="url(#clip0_636_409)">
<path d="M52.1879 73.5159L52.1639 73.5199L52.0219 73.5899L51.9819 73.5979L51.9539 73.5899L51.8119 73.5179C51.7905 73.5125 51.7745 73.5165 51.7639 73.5299L51.7559 73.5499L51.7219 74.4059L51.7319 74.4459L51.7519 74.4719L51.9599 74.6199L51.9899 74.6279L52.0139 74.6199L52.2219 74.4719L52.2459 74.4399L52.2539 74.4059L52.2199 73.5519C52.2145 73.5305 52.2039 73.5185 52.1879 73.5159ZM52.7159 73.2899L52.6879 73.2939L52.3199 73.4799L52.2999 73.4999L52.2939 73.5219L52.3299 74.3819L52.3399 74.4059L52.3559 74.4219L52.7579 74.6059C52.7832 74.6125 52.8025 74.6072 52.8159 74.5899L52.8239 74.5619L52.7559 73.3339C52.7492 73.3085 52.7359 73.2939 52.7159 73.2899ZM51.2859 73.2939C51.277 73.2885 51.2665 73.2868 51.2564 73.289C51.2464 73.2913 51.2376 73.2973 51.2319 73.3059L51.2199 73.3339L51.1519 74.5619C51.1532 74.5859 51.1645 74.6019 51.1859 74.6099L51.2159 74.6059L51.6179 74.4199L51.6379 74.4039L51.6439 74.3819L51.6799 73.5219L51.6739 73.4979L51.6539 73.4779L51.2859 73.2939Z" fill="white"/>
<path d="M47.23 69.622C48.442 70.622 49.706 71.536 51 72.428C52.2968 71.5478 53.5546 70.6116 54.77 69.622C56.796 67.9584 58.7027 66.1547 60.476 64.224C64.564 59.754 69 53.274 69 46C69 43.6362 68.5344 41.2956 67.6298 39.1117C66.7252 36.9278 65.3994 34.9435 63.7279 33.2721C62.0565 31.6006 60.0722 30.2748 57.8883 29.3702C55.7044 28.4656 53.3638 28 51 28C48.6362 28 46.2956 28.4656 44.1117 29.3702C41.9278 30.2748 39.9435 31.6006 38.2721 33.2721C36.6006 34.9435 35.2748 36.9278 34.3702 39.1117C33.4656 41.2956 33 43.6362 33 46C33 53.274 37.436 59.752 41.524 64.224C43.2972 66.1554 45.2039 67.9578 47.23 69.622ZM51 52.5C49.2761 52.5 47.6228 51.8152 46.4038 50.5962C45.1848 49.3772 44.5 47.7239 44.5 46C44.5 44.2761 45.1848 42.6228 46.4038 41.4038C47.6228 40.1848 49.2761 39.5 51 39.5C52.7239 39.5 54.3772 40.1848 55.5962 41.4038C56.8152 42.6228 57.5 44.2761 57.5 46C57.5 47.7239 56.8152 49.3772 55.5962 50.5962C54.3772 51.8152 52.7239 52.5 51 52.5Z" fill="white"/>
</g>
<defs>
<clipPath id="clip0_636_409">
<rect width="48" height="48" fill="white" transform="translate(27 27)"/>
</clipPath>
</defs>
</svg>
